<svg id="Layer_1" data-name="Layer 1" xmlns="http://www.w3.org/2000/svg" viewBox="0 0 400 135.16"><defs><style>.cls-1{fill:#fff;}.cls-2{fill:#4190cd;}</style></defs><path class="cls-1" d="M5.4,105.38V19.5q0-2,2.13-2l8,2L14.19,34.19c.16,1.17.31,2.8.44,4.9s.23,4.41.31,7,.17,5.22.25,8,.17,5.4.25,7.91.13,4.73.13,6.65v34.78a1.77,1.77,0,0,1-.44,1.38,5.34,5.34,0,0,1-2.51.5Q10.55,105.39,5.4,105.38Zm35.28,0L26.24,70.85q-.75-2-2.07-5.71t-2.83-8.35q-1.5-4.65-3.07-9.35t-2.89-8.73q-1.32-4-2.82-8.92L6.78,23.52l.75-6h7.79l14.06,33.9c.58,1.42,1.32,3.41,2.2,6s1.82,5.36,2.82,8.42,2,6.11,3,9.16,1.92,5.88,2.76,8.48S42,88.85,43.07,92l6.15,7.4-1,6Zm7.53,0-8-2,1.13-16.82c-.17-1.26-.3-2.91-.38-5s-.17-4.31-.25-6.78-.17-5-.25-7.6-.15-5.08-.19-7.47-.06-4.5-.06-6.34V19.5a1.73,1.73,0,0,1,.44-1.38,5.49,5.49,0,0,1,2.57-.5q2.13-.14,7.16-.13v85.88C50.35,104.71,49.64,105.38,48.21,105.38Z"/><path class="cls-1" d="M79.48,106.64a25.75,25.75,0,0,1-8-1.2,13.9,13.9,0,0,1-6.4-4.33A21.5,21.5,0,0,1,61,92.2a62.93,62.93,0,0,1-1.45-14.94q0-11.81,1.89-19t5-10.8a15.56,15.56,0,0,1,7.15-4.9,27.46,27.46,0,0,1,8.17-1.25q7.91,0,11.92,5t4,15.19q0,4.14-.31,8.54a44.15,44.15,0,0,1-1.19,7.78,72.74,72.74,0,0,1-9.55,1.26q-5.26.38-10,.56t-10.93.19l.13-8.28q4.77.12,8.22.06c2.31,0,4.65-.17,7-.38a30.49,30.49,0,0,0,6.09-1.07,26.51,26.51,0,0,0,.5-3.76c.08-1.34.12-2.6.12-3.77-.08-4.52-.61-7.72-1.57-9.6s-2.82-2.83-5.58-2.83a7.7,7.7,0,0,0-4.08,1.19,10.1,10.1,0,0,0-3.46,4.15,27.64,27.64,0,0,0-2.32,8.1,86,86,0,0,0-.82,13.18,57.58,57.58,0,0,0,.69,9.79,15.73,15.73,0,0,0,2.14,6,8.3,8.3,0,0,0,3.64,3.08,13.65,13.65,0,0,0,5.34.94,28.42,28.42,0,0,0,7.47-1,25,25,0,0,0,6.71-2.88,12,12,0,0,1,.82,3.45c.13,1.3.19,2.45.19,3.45,0,1.26-.8,2.43-2.39,3.52a18.42,18.42,0,0,1-6.34,2.51A40.54,40.54,0,0,1,79.48,106.64Z"/><path class="cls-1" d="M124.68,106.64a25.75,25.75,0,0,1-8-1.2,13.9,13.9,0,0,1-6.4-4.33,21.5,21.5,0,0,1-4.14-8.91,62.93,62.93,0,0,1-1.45-14.94q0-11.81,1.88-19t5-10.8a15.51,15.51,0,0,1,7.15-4.9,27.46,27.46,0,0,1,8.17-1.25q7.91,0,11.92,5t4,15.19q0,4.14-.31,8.54a43.19,43.19,0,0,1-1.2,7.78,72.34,72.34,0,0,1-9.54,1.26q-5.27.38-10,.56c-3.18.13-6.83.19-10.93.19l.13-8.28q4.77.12,8.22.06t7-.38a30.25,30.25,0,0,0,6.08-1.07,25.1,25.1,0,0,0,.51-3.76c.08-1.34.12-2.6.12-3.77-.08-4.52-.61-7.72-1.57-9.6s-2.82-2.83-5.58-2.83a7.76,7.76,0,0,0-4.09,1.19,10.16,10.16,0,0,0-3.45,4.15A27.64,27.64,0,0,0,116,63.7a86,86,0,0,0-.82,13.18,57.58,57.58,0,0,0,.69,9.79,15.57,15.57,0,0,0,2.14,6,8.3,8.3,0,0,0,3.64,3.08,13.65,13.65,0,0,0,5.34.94,28.42,28.42,0,0,0,7.47-1,25.14,25.14,0,0,0,6.71-2.88,12,12,0,0,1,.82,3.45c.13,1.3.19,2.45.19,3.45,0,1.26-.8,2.43-2.39,3.52a18.42,18.42,0,0,1-6.34,2.51A40.54,40.54,0,0,1,124.68,106.64Z"/><path class="cls-1" d="M170.38,106.64a30.91,30.91,0,0,1-7.79-1,13.49,13.49,0,0,1-6.53-4q-2.88-3.08-4.45-9.17A67.36,67.36,0,0,1,150,76.25q0-12.44,2.57-20.15t6.91-11.24a15,15,0,0,1,9.73-3.51,19.57,19.57,0,0,1,5.14.62,9.91,9.91,0,0,1,3.77,1.89V17.74a5.13,5.13,0,0,1,.82-3.33,4.54,4.54,0,0,1,3.07-1.13q2.26-.18,6.28-.18v89.77a37.71,37.71,0,0,1-7.59,2.64A43.6,43.6,0,0,1,170.38,106.64Zm.37-9.17a17.2,17.2,0,0,0,4-.44,10.1,10.1,0,0,0,3.39-1.44V51.89a5.62,5.62,0,0,0-2.45-1.32,15.28,15.28,0,0,0-3.32-.31,8.93,8.93,0,0,0-4,1,9.3,9.3,0,0,0-3.64,3.7,22.41,22.41,0,0,0-2.51,7.53,72.78,72.78,0,0,0-.88,12.62A85,85,0,0,0,162,86.67a20.68,20.68,0,0,0,1.89,6.72,7.3,7.3,0,0,0,3,3.2A8.43,8.43,0,0,0,170.75,97.47Z"/><path class="cls-2" d="M213.07,106.64a32.85,32.85,0,0,1-11-1.57q-4.34-1.57-4.33-4.84a11.9,11.9,0,0,1,.37-2.7,11.15,11.15,0,0,1,1.39-3.2,21.59,21.59,0,0,0,5.83,2.39,28.34,28.34,0,0,0,6.72.75,12.56,12.56,0,0,0,7.47-2,6.71,6.71,0,0,0,2.7-5.83,11.88,11.88,0,0,0-1.06-4.9,15.11,15.11,0,0,0-4-4.9L205,69.47a19.29,19.29,0,0,1-5.71-6.84,16.07,16.07,0,0,1-1.45-6.47,13.73,13.73,0,0,1,2.2-7.72,14.3,14.3,0,0,1,6.78-5.21,30.35,30.35,0,0,1,11.49-1.88q6.53,0,9.86,1.25a11.24,11.24,0,0,1,4.64,2.83,4.71,4.71,0,0,1,1.32,3,7.68,7.68,0,0,1-2.26,5.15A19.55,19.55,0,0,0,226.12,51a26.88,26.88,0,0,0-6.52-.75,14.24,14.24,0,0,0-7.22,1.57,4.91,4.91,0,0,0-2.7,4.46,7.13,7.13,0,0,0,.94,3.39,17.49,17.49,0,0,0,4.08,4.39l11.68,9.42a25.11,25.11,0,0,1,5.77,7.41,19.45,19.45,0,0,1,1.63,8.28q0,8.29-5.52,12.87T213.07,106.64Z"/><path class="cls-2" d="M243.07,105.38V17.74a5.13,5.13,0,0,1,.82-3.33A4.55,4.55,0,0,1,247,13.28q2.25-.18,6.27-.18v90.27a1.73,1.73,0,0,1-.44,1.38,5.31,5.31,0,0,1-2.51.5Q248.22,105.39,243.07,105.38Z"/><path class="cls-2" d="M282.75,106.64a25.64,25.64,0,0,1-8-1.2,13.93,13.93,0,0,1-6.41-4.33,21.5,21.5,0,0,1-4.14-8.91,62.93,62.93,0,0,1-1.45-14.94q0-11.81,1.89-19t5-10.8a15.54,15.54,0,0,1,7.16-4.9A27.39,27.39,0,0,1,285,41.35q7.9,0,11.93,5t4,15.19q0,4.14-.31,8.54a44.15,44.15,0,0,1-1.19,7.78,72.8,72.8,0,0,1-9.54,1.26q-5.28.38-10.05.56t-10.92.19l.12-8.28q4.77.12,8.23.06t7-.38a30.49,30.49,0,0,0,6.09-1.07,25.13,25.13,0,0,0,.5-3.76c.08-1.34.13-2.6.13-3.77q-.14-6.78-1.57-9.6t-5.59-2.83a7.7,7.7,0,0,0-4.08,1.19,10.1,10.1,0,0,0-3.46,4.15A28,28,0,0,0,274,63.7a87.52,87.52,0,0,0-.81,13.18,57.58,57.58,0,0,0,.69,9.79,15.74,15.74,0,0,0,2.13,6,8.35,8.35,0,0,0,3.64,3.08,13.72,13.72,0,0,0,5.34.94,28.42,28.42,0,0,0,7.47-1,25.07,25.07,0,0,0,6.72-2.88,12,12,0,0,1,.81,3.45c.13,1.3.19,2.45.19,3.45,0,1.26-.8,2.43-2.38,3.52a18.57,18.57,0,0,1-6.35,2.51A40.54,40.54,0,0,1,282.75,106.64Z"/><path class="cls-2" d="M328,106.64a25.75,25.75,0,0,1-8-1.2,13.9,13.9,0,0,1-6.4-4.33,21.5,21.5,0,0,1-4.14-8.91A62.93,62.93,0,0,1,308,77.26q0-11.81,1.89-19t5-10.8a15.54,15.54,0,0,1,7.16-4.9,27.39,27.39,0,0,1,8.16-1.25q7.91,0,11.93,5t4,15.19q0,4.14-.31,8.54a44.15,44.15,0,0,1-1.19,7.78,72.74,72.74,0,0,1-9.55,1.26q-5.27.38-10,.56t-10.92.19l.12-8.28q4.77.12,8.23.06t7-.38a30.49,30.49,0,0,0,6.09-1.07,26.51,26.51,0,0,0,.5-3.76c.08-1.34.12-2.6.12-3.77q-.12-6.78-1.56-9.6t-5.59-2.83A7.7,7.7,0,0,0,325,51.45a10.1,10.1,0,0,0-3.46,4.15,27.64,27.64,0,0,0-2.32,8.1,87.52,87.52,0,0,0-.81,13.18,56.56,56.56,0,0,0,.69,9.79,15.58,15.58,0,0,0,2.13,6,8.35,8.35,0,0,0,3.64,3.08,13.65,13.65,0,0,0,5.34.94,28.42,28.42,0,0,0,7.47-1,25.07,25.07,0,0,0,6.72-2.88,12,12,0,0,1,.81,3.45c.13,1.3.19,2.45.19,3.45,0,1.26-.8,2.43-2.39,3.52a18.42,18.42,0,0,1-6.34,2.51A40.54,40.54,0,0,1,328,106.64Z"/><path class="cls-2" d="M360.09,130.12a5.91,5.91,0,0,1-3.77-1c-.75-.62-1.13-1.78-1.13-3.45V46.37a31.62,31.62,0,0,1,8.54-3.71,36.92,36.92,0,0,1,9.79-1.31,24.93,24.93,0,0,1,10.86,2.19q4.59,2.2,7.1,7.91t2.51,16a109,109,0,0,1-1.13,17,49.67,49.67,0,0,1-3,11.36,20,20,0,0,1-4.34,6.72,13.89,13.89,0,0,1-5,3.2,17,17,0,0,1-11.17-.13,10.43,10.43,0,0,1-4-2.51v26.12a25.29,25.29,0,0,1-2.63.63A15.65,15.65,0,0,1,360.09,130.12Zm12.05-32.65a7.34,7.34,0,0,0,3.27-.88,9.28,9.28,0,0,0,3.45-3.76,27.72,27.72,0,0,0,2.76-8.67,89.74,89.74,0,0,0,1.07-15.57,47,47,0,0,0-1.07-11.49q-1.06-3.94-3.2-5.4a9.44,9.44,0,0,0-5.4-1.44,13,13,0,0,0-7.66,2.39V93.33a8.61,8.61,0,0,0,3.14,3.2A7.59,7.59,0,0,0,372.14,97.47Z"/></svg>